<?xml version="1.0" encoding="UTF-8" standalone="no"?>

<svg
   xmlns="http://www.w3.org/2000/svg"
   width="750"
   height="1000"
   id="svg2"
>
    <path
       style="fill:#ffcc00"
       d="m 566,612 -35,1 -26,-11 -21,27 -22,8 c 79,54 115,47 105,-24 z"
       id="rightLeg"
/>
    <path
       style="fill:#ffcc00"
       d="m 465,661 -35,1 -26,-11 -21,27 -22,8 c 79,54 115,47 105,-24 z"
       id="leftLeg"
/>
    <path
       style="fill:#000000;fill-opacity:1;stroke:none"
       d="m 436,318 c -19,15 -28,29 -38,45 -38,12 -67,59 -61,124 -90,56 -121,114 7,80 12,209 265,134 216,-29 142,-80 62,-90 -22,-81 -16,-71 -72,-104 -121,-98 0,-13 12,-26 19,-40 z"
       id="penguinBody"
/>
</svg>
